# xmcd
#
# Track frame offsets: 
#        150
#        35848
#        54900
#        76927
#        96736
#        117000
#        137221
#        159357
#        179531
#        198071
#
# Disc length: 3051 seconds
#
# Revision: 0
# Processed by: cddbd v1.5.2PL0 Copyright (c) Steve Scherf et al.
# Submitted via: ExactAudioCopy v1.0b3
#
DISCID=820be90a
DTITLE=GLAY - GUILTY
DYEAR=2013
DGENRE=Rock
TTITLE0=Red moon&Silver moon~My private"Jealousy"
TTITLE1=everKrack(album.ver)
TTITLE2=FACTORY
TTITLE3=huyu no yuuhodou
TTITLE4=hanayo arashiyo
TTITLE5=kiri no naka(album.ver)
TTITLE6=hatukoi wo utae
TTITLE7=Bible
TTITLE8=Ruby's Blanket
TTITLE9=kimi ni aetara
EXTD=
EXTT0=
EXTT1=
EXTT2=
EXTT3=
EXTT4=
EXTT5=
EXTT6=
EXTT7=
EXTT8=
EXTT9=
PLAYORDER=
